<mxfile host="app.diagrams.net" agent="Mozilla/5.0 (Windows NT 10.0; Win64; x64) AppleWebKit/537.36 (KHTML, like Gecko) Chrome/131.0.0.0 Safari/537.36" version="26.0.1">
  <diagram name="第 1 页" id="XSw2CFSkKn1CnTCh6ksZ">
    <mxGraphModel dx="7454" dy="4604" grid="1" gridSize="10" guides="1" tooltips="1" connect="1" arrows="1" fold="1" page="1" pageScale="1" pageWidth="827" pageHeight="1169" background="#ffffff" math="0" shadow="0">
      <root>
        <mxCell id="0" />
        <mxCell id="1" parent="0" />
        <mxCell id="6dyBDHQs_relzWyq5lGw-61" value="&lt;font style=&quot;font-size: 18px;&quot;&gt;商品信息模块&lt;/font&gt;" style="rounded=0;whiteSpace=wrap;html=1;" vertex="1" parent="1">
          <mxGeometry x="-556.5" y="-510" width="120" height="60" as="geometry" />
        </mxCell>
        <mxCell id="6dyBDHQs_relzWyq5lGw-71" style="edgeStyle=orthogonalEdgeStyle;rounded=0;orthogonalLoop=1;jettySize=auto;html=1;entryX=0.5;entryY=1;entryDx=0;entryDy=0;" edge="1" parent="1" source="6dyBDHQs_relzWyq5lGw-68" target="6dyBDHQs_relzWyq5lGw-61">
          <mxGeometry relative="1" as="geometry" />
        </mxCell>
        <mxCell id="6dyBDHQs_relzWyq5lGw-68" value="商品信息展示" style="rounded=0;whiteSpace=wrap;html=1;" vertex="1" parent="1">
          <mxGeometry x="-620" y="-340" width="80" height="120" as="geometry" />
        </mxCell>
        <mxCell id="6dyBDHQs_relzWyq5lGw-72" value="" style="edgeStyle=orthogonalEdgeStyle;rounded=0;orthogonalLoop=1;jettySize=auto;html=1;" edge="1" parent="1" source="6dyBDHQs_relzWyq5lGw-69" target="6dyBDHQs_relzWyq5lGw-61">
          <mxGeometry relative="1" as="geometry" />
        </mxCell>
        <mxCell id="6dyBDHQs_relzWyq5lGw-69" value="商品信息管理" style="rounded=0;whiteSpace=wrap;html=1;" vertex="1" parent="1">
          <mxGeometry x="-458.5" y="-340" width="87" height="120" as="geometry" />
        </mxCell>
        <mxCell id="6dyBDHQs_relzWyq5lGw-74" value="" style="edgeStyle=orthogonalEdgeStyle;rounded=0;orthogonalLoop=1;jettySize=auto;html=1;" edge="1" parent="1" source="6dyBDHQs_relzWyq5lGw-73" target="6dyBDHQs_relzWyq5lGw-61">
          <mxGeometry relative="1" as="geometry" />
        </mxCell>
        <mxCell id="6dyBDHQs_relzWyq5lGw-73" value="商品状态管理" style="rounded=0;whiteSpace=wrap;html=1;" vertex="1" parent="1">
          <mxGeometry x="-540" y="-340" width="87" height="120" as="geometry" />
        </mxCell>
        <mxCell id="6dyBDHQs_relzWyq5lGw-121" value="管理员" style="shape=umlActor;verticalLabelPosition=bottom;verticalAlign=top;html=1;outlineConnect=0;" vertex="1" parent="1">
          <mxGeometry x="260" y="-900" width="30" height="60" as="geometry" />
        </mxCell>
        <mxCell id="6dyBDHQs_relzWyq5lGw-122" value="" style="endArrow=classic;html=1;rounded=0;exitX=1;exitY=0.3333333333333333;exitDx=0;exitDy=0;exitPerimeter=0;entryX=0;entryY=0.5;entryDx=0;entryDy=0;entryPerimeter=0;" edge="1" parent="1" source="6dyBDHQs_relzWyq5lGw-121" target="6dyBDHQs_relzWyq5lGw-123">
          <mxGeometry width="50" height="50" relative="1" as="geometry">
            <mxPoint x="470" y="-800" as="sourcePoint" />
            <mxPoint x="340" y="-950" as="targetPoint" />
          </mxGeometry>
        </mxCell>
        <mxCell id="6dyBDHQs_relzWyq5lGw-123" value="用户管理" style="strokeWidth=2;html=1;shape=mxgraph.flowchart.start_1;whiteSpace=wrap;" vertex="1" parent="1">
          <mxGeometry x="340" y="-970" width="100" height="40" as="geometry" />
        </mxCell>
        <mxCell id="6dyBDHQs_relzWyq5lGw-124" value="商品管理" style="strokeWidth=2;html=1;shape=mxgraph.flowchart.start_1;whiteSpace=wrap;" vertex="1" parent="1">
          <mxGeometry x="340" y="-920" width="100" height="40" as="geometry" />
        </mxCell>
        <mxCell id="6dyBDHQs_relzWyq5lGw-125" value="订单管理" style="strokeWidth=2;html=1;shape=mxgraph.flowchart.start_1;whiteSpace=wrap;" vertex="1" parent="1">
          <mxGeometry x="340" y="-870" width="100" height="40" as="geometry" />
        </mxCell>
        <mxCell id="6dyBDHQs_relzWyq5lGw-126" value="商家管理" style="strokeWidth=2;html=1;shape=mxgraph.flowchart.start_1;whiteSpace=wrap;" vertex="1" parent="1">
          <mxGeometry x="340" y="-820" width="100" height="40" as="geometry" />
        </mxCell>
        <mxCell id="6dyBDHQs_relzWyq5lGw-127" value="系统配置" style="strokeWidth=2;html=1;shape=mxgraph.flowchart.start_1;whiteSpace=wrap;" vertex="1" parent="1">
          <mxGeometry x="340" y="-770" width="100" height="40" as="geometry" />
        </mxCell>
        <mxCell id="6dyBDHQs_relzWyq5lGw-128" value="" style="endArrow=classic;html=1;rounded=0;exitX=1;exitY=0.3333333333333333;exitDx=0;exitDy=0;exitPerimeter=0;entryX=0;entryY=0.5;entryDx=0;entryDy=0;entryPerimeter=0;" edge="1" parent="1" source="6dyBDHQs_relzWyq5lGw-121" target="6dyBDHQs_relzWyq5lGw-124">
          <mxGeometry width="50" height="50" relative="1" as="geometry">
            <mxPoint x="470" y="-800" as="sourcePoint" />
            <mxPoint x="520" y="-850" as="targetPoint" />
          </mxGeometry>
        </mxCell>
        <mxCell id="6dyBDHQs_relzWyq5lGw-129" value="" style="endArrow=classic;html=1;rounded=0;exitX=1;exitY=0.3333333333333333;exitDx=0;exitDy=0;exitPerimeter=0;entryX=0;entryY=0.5;entryDx=0;entryDy=0;entryPerimeter=0;" edge="1" parent="1" source="6dyBDHQs_relzWyq5lGw-121" target="6dyBDHQs_relzWyq5lGw-125">
          <mxGeometry width="50" height="50" relative="1" as="geometry">
            <mxPoint x="470" y="-800" as="sourcePoint" />
            <mxPoint x="520" y="-850" as="targetPoint" />
          </mxGeometry>
        </mxCell>
        <mxCell id="6dyBDHQs_relzWyq5lGw-130" value="" style="endArrow=classic;html=1;rounded=0;entryX=0;entryY=0.5;entryDx=0;entryDy=0;entryPerimeter=0;" edge="1" parent="1" target="6dyBDHQs_relzWyq5lGw-126">
          <mxGeometry width="50" height="50" relative="1" as="geometry">
            <mxPoint x="290" y="-880" as="sourcePoint" />
            <mxPoint x="520" y="-850" as="targetPoint" />
          </mxGeometry>
        </mxCell>
        <mxCell id="6dyBDHQs_relzWyq5lGw-131" value="" style="endArrow=classic;html=1;rounded=0;entryX=0;entryY=0.5;entryDx=0;entryDy=0;entryPerimeter=0;" edge="1" parent="1" target="6dyBDHQs_relzWyq5lGw-127">
          <mxGeometry width="50" height="50" relative="1" as="geometry">
            <mxPoint x="290" y="-880" as="sourcePoint" />
            <mxPoint x="520" y="-850" as="targetPoint" />
          </mxGeometry>
        </mxCell>
        <mxCell id="6dyBDHQs_relzWyq5lGw-132" value="用户" style="shape=umlActor;verticalLabelPosition=bottom;verticalAlign=top;html=1;outlineConnect=0;" vertex="1" parent="1">
          <mxGeometry x="494" y="-900" width="30" height="60" as="geometry" />
        </mxCell>
        <mxCell id="6dyBDHQs_relzWyq5lGw-133" value="浏览商品" style="strokeWidth=2;html=1;shape=mxgraph.flowchart.start_1;whiteSpace=wrap;" vertex="1" parent="1">
          <mxGeometry x="570" y="-960" width="100" height="40" as="geometry" />
        </mxCell>
        <mxCell id="6dyBDHQs_relzWyq5lGw-134" value="加入购物车" style="strokeWidth=2;html=1;shape=mxgraph.flowchart.start_1;whiteSpace=wrap;" vertex="1" parent="1">
          <mxGeometry x="570" y="-910" width="100" height="40" as="geometry" />
        </mxCell>
        <mxCell id="6dyBDHQs_relzWyq5lGw-135" value="订单管理" style="strokeWidth=2;html=1;shape=mxgraph.flowchart.start_1;whiteSpace=wrap;" vertex="1" parent="1">
          <mxGeometry x="570" y="-860" width="100" height="40" as="geometry" />
        </mxCell>
        <mxCell id="6dyBDHQs_relzWyq5lGw-136" value="查询个人信息" style="strokeWidth=2;html=1;shape=mxgraph.flowchart.start_1;whiteSpace=wrap;" vertex="1" parent="1">
          <mxGeometry x="570" y="-810" width="100" height="40" as="geometry" />
        </mxCell>
        <mxCell id="6dyBDHQs_relzWyq5lGw-137" value="" style="endArrow=classic;html=1;rounded=0;exitX=1;exitY=0.3333333333333333;exitDx=0;exitDy=0;exitPerimeter=0;entryX=0;entryY=0.5;entryDx=0;entryDy=0;entryPerimeter=0;" edge="1" parent="1" source="6dyBDHQs_relzWyq5lGw-132" target="6dyBDHQs_relzWyq5lGw-133">
          <mxGeometry width="50" height="50" relative="1" as="geometry">
            <mxPoint x="470" y="-700" as="sourcePoint" />
            <mxPoint x="520" y="-750" as="targetPoint" />
          </mxGeometry>
        </mxCell>
        <mxCell id="6dyBDHQs_relzWyq5lGw-138" value="" style="endArrow=classic;html=1;rounded=0;exitX=1;exitY=0.3333333333333333;exitDx=0;exitDy=0;exitPerimeter=0;entryX=0;entryY=0.5;entryDx=0;entryDy=0;entryPerimeter=0;" edge="1" parent="1" source="6dyBDHQs_relzWyq5lGw-132" target="6dyBDHQs_relzWyq5lGw-134">
          <mxGeometry width="50" height="50" relative="1" as="geometry">
            <mxPoint x="470" y="-700" as="sourcePoint" />
            <mxPoint x="520" y="-750" as="targetPoint" />
          </mxGeometry>
        </mxCell>
        <mxCell id="6dyBDHQs_relzWyq5lGw-139" value="" style="endArrow=classic;html=1;rounded=0;entryX=0;entryY=0.5;entryDx=0;entryDy=0;entryPerimeter=0;exitX=1;exitY=0.3333333333333333;exitDx=0;exitDy=0;exitPerimeter=0;" edge="1" parent="1" source="6dyBDHQs_relzWyq5lGw-132" target="6dyBDHQs_relzWyq5lGw-135">
          <mxGeometry width="50" height="50" relative="1" as="geometry">
            <mxPoint x="530" y="-880" as="sourcePoint" />
            <mxPoint x="520" y="-750" as="targetPoint" />
          </mxGeometry>
        </mxCell>
        <mxCell id="6dyBDHQs_relzWyq5lGw-140" value="" style="endArrow=classic;html=1;rounded=0;exitX=1;exitY=0.3333333333333333;exitDx=0;exitDy=0;exitPerimeter=0;entryX=0;entryY=0.5;entryDx=0;entryDy=0;entryPerimeter=0;" edge="1" parent="1" source="6dyBDHQs_relzWyq5lGw-132" target="6dyBDHQs_relzWyq5lGw-136">
          <mxGeometry width="50" height="50" relative="1" as="geometry">
            <mxPoint x="530" y="-880" as="sourcePoint" />
            <mxPoint x="520" y="-750" as="targetPoint" />
          </mxGeometry>
        </mxCell>
        <mxCell id="6dyBDHQs_relzWyq5lGw-141" value="商家" style="shape=umlActor;verticalLabelPosition=bottom;verticalAlign=top;html=1;outlineConnect=0;" vertex="1" parent="1">
          <mxGeometry x="710" y="-910" width="30" height="60" as="geometry" />
        </mxCell>
        <mxCell id="6dyBDHQs_relzWyq5lGw-142" value="商品管理" style="strokeWidth=2;html=1;shape=mxgraph.flowchart.start_1;whiteSpace=wrap;" vertex="1" parent="1">
          <mxGeometry x="760" y="-960" width="100" height="40" as="geometry" />
        </mxCell>
        <mxCell id="6dyBDHQs_relzWyq5lGw-143" value="订单处理" style="strokeWidth=2;html=1;shape=mxgraph.flowchart.start_1;whiteSpace=wrap;" vertex="1" parent="1">
          <mxGeometry x="760" y="-910" width="100" height="40" as="geometry" />
        </mxCell>
        <mxCell id="6dyBDHQs_relzWyq5lGw-144" value="交易统计" style="strokeWidth=2;html=1;shape=mxgraph.flowchart.start_1;whiteSpace=wrap;" vertex="1" parent="1">
          <mxGeometry x="760" y="-860" width="100" height="40" as="geometry" />
        </mxCell>
        <mxCell id="6dyBDHQs_relzWyq5lGw-145" value="" style="endArrow=classic;html=1;rounded=0;exitX=1;exitY=0.3333333333333333;exitDx=0;exitDy=0;exitPerimeter=0;entryX=0;entryY=0.5;entryDx=0;entryDy=0;entryPerimeter=0;" edge="1" parent="1" source="6dyBDHQs_relzWyq5lGw-141" target="6dyBDHQs_relzWyq5lGw-142">
          <mxGeometry width="50" height="50" relative="1" as="geometry">
            <mxPoint x="470" y="-700" as="sourcePoint" />
            <mxPoint x="520" y="-750" as="targetPoint" />
          </mxGeometry>
        </mxCell>
        <mxCell id="6dyBDHQs_relzWyq5lGw-146" value="" style="endArrow=classic;html=1;rounded=0;exitX=1;exitY=0.3333333333333333;exitDx=0;exitDy=0;exitPerimeter=0;entryX=0;entryY=0.5;entryDx=0;entryDy=0;entryPerimeter=0;" edge="1" parent="1" source="6dyBDHQs_relzWyq5lGw-141" target="6dyBDHQs_relzWyq5lGw-143">
          <mxGeometry width="50" height="50" relative="1" as="geometry">
            <mxPoint x="470" y="-700" as="sourcePoint" />
            <mxPoint x="520" y="-750" as="targetPoint" />
          </mxGeometry>
        </mxCell>
        <mxCell id="6dyBDHQs_relzWyq5lGw-147" value="" style="endArrow=classic;html=1;rounded=0;exitX=1;exitY=0.3333333333333333;exitDx=0;exitDy=0;exitPerimeter=0;entryX=0;entryY=0.5;entryDx=0;entryDy=0;entryPerimeter=0;" edge="1" parent="1" source="6dyBDHQs_relzWyq5lGw-141" target="6dyBDHQs_relzWyq5lGw-144">
          <mxGeometry width="50" height="50" relative="1" as="geometry">
            <mxPoint x="470" y="-700" as="sourcePoint" />
            <mxPoint x="520" y="-750" as="targetPoint" />
          </mxGeometry>
        </mxCell>
        <mxCell id="6dyBDHQs_relzWyq5lGw-148" value="&lt;font style=&quot;font-size: 18px;&quot;&gt;输入账号密码&lt;/font&gt;" style="rounded=0;whiteSpace=wrap;html=1;" vertex="1" parent="1">
          <mxGeometry x="-140" y="-980" width="120" height="60" as="geometry" />
        </mxCell>
        <mxCell id="6dyBDHQs_relzWyq5lGw-149" value="&lt;font style=&quot;font-size: 14px;&quot;&gt;判断账号密码&lt;br&gt;是否正确&lt;/font&gt;" style="rhombus;whiteSpace=wrap;html=1;" vertex="1" parent="1">
          <mxGeometry x="-140" y="-890" width="120" height="90" as="geometry" />
        </mxCell>
        <mxCell id="6dyBDHQs_relzWyq5lGw-150" value="" style="endArrow=classic;html=1;rounded=0;exitX=0.5;exitY=1;exitDx=0;exitDy=0;" edge="1" parent="1" target="6dyBDHQs_relzWyq5lGw-148">
          <mxGeometry width="50" height="50" relative="1" as="geometry">
            <mxPoint x="-80" y="-1020" as="sourcePoint" />
            <mxPoint x="-20" y="-860" as="targetPoint" />
          </mxGeometry>
        </mxCell>
        <mxCell id="6dyBDHQs_relzWyq5lGw-151" value="" style="endArrow=classic;html=1;rounded=0;exitX=0.5;exitY=1;exitDx=0;exitDy=0;entryX=0.5;entryY=0;entryDx=0;entryDy=0;" edge="1" parent="1" source="6dyBDHQs_relzWyq5lGw-148" target="6dyBDHQs_relzWyq5lGw-149">
          <mxGeometry width="50" height="50" relative="1" as="geometry">
            <mxPoint x="-70" y="-810" as="sourcePoint" />
            <mxPoint x="-20" y="-860" as="targetPoint" />
          </mxGeometry>
        </mxCell>
        <mxCell id="6dyBDHQs_relzWyq5lGw-152" value="" style="edgeStyle=elbowEdgeStyle;elbow=horizontal;endArrow=classic;html=1;curved=0;rounded=0;endSize=8;startSize=8;exitX=1;exitY=0.5;exitDx=0;exitDy=0;entryX=1;entryY=0.5;entryDx=0;entryDy=0;" edge="1" parent="1" source="6dyBDHQs_relzWyq5lGw-149" target="6dyBDHQs_relzWyq5lGw-148">
          <mxGeometry width="50" height="50" relative="1" as="geometry">
            <mxPoint x="-70" y="-810" as="sourcePoint" />
            <mxPoint x="100" y="-930" as="targetPoint" />
            <Array as="points">
              <mxPoint x="40" y="-920" />
            </Array>
          </mxGeometry>
        </mxCell>
        <mxCell id="6dyBDHQs_relzWyq5lGw-153" value="&lt;font style=&quot;font-size: 18px;&quot;&gt;账号或密码错误&lt;/font&gt;" style="text;html=1;align=center;verticalAlign=middle;resizable=0;points=[];autosize=1;strokeColor=none;fillColor=none;" vertex="1" parent="1">
          <mxGeometry x="30" y="-920" width="150" height="40" as="geometry" />
        </mxCell>
        <mxCell id="6dyBDHQs_relzWyq5lGw-154" value="&lt;font style=&quot;font-size: 18px;&quot;&gt;登录成功&lt;/font&gt;" style="rounded=0;whiteSpace=wrap;html=1;" vertex="1" parent="1">
          <mxGeometry x="-140" y="-750" width="120" height="60" as="geometry" />
        </mxCell>
        <mxCell id="6dyBDHQs_relzWyq5lGw-155" value="" style="endArrow=classic;html=1;rounded=0;exitX=0.5;exitY=1;exitDx=0;exitDy=0;entryX=0.5;entryY=0;entryDx=0;entryDy=0;" edge="1" parent="1" source="6dyBDHQs_relzWyq5lGw-149" target="6dyBDHQs_relzWyq5lGw-154">
          <mxGeometry width="50" height="50" relative="1" as="geometry">
            <mxPoint x="-70" y="-810" as="sourcePoint" />
            <mxPoint x="-20" y="-860" as="targetPoint" />
          </mxGeometry>
        </mxCell>
        <mxCell id="6dyBDHQs_relzWyq5lGw-156" value="&lt;font style=&quot;font-size: 18px;&quot;&gt;开始&lt;/font&gt;" style="strokeWidth=2;html=1;shape=mxgraph.flowchart.terminator;whiteSpace=wrap;" vertex="1" parent="1">
          <mxGeometry x="-130" y="-1080" width="100" height="60" as="geometry" />
        </mxCell>
        <mxCell id="6dyBDHQs_relzWyq5lGw-157" value="&lt;font style=&quot;font-size: 18px;&quot;&gt;结束&lt;/font&gt;" style="strokeWidth=2;html=1;shape=mxgraph.flowchart.terminator;whiteSpace=wrap;" vertex="1" parent="1">
          <mxGeometry x="-130" y="-650" width="100" height="60" as="geometry" />
        </mxCell>
        <mxCell id="6dyBDHQs_relzWyq5lGw-158" value="" style="endArrow=classic;html=1;rounded=0;exitX=0.5;exitY=1;exitDx=0;exitDy=0;entryX=0.5;entryY=0;entryDx=0;entryDy=0;entryPerimeter=0;" edge="1" parent="1" source="6dyBDHQs_relzWyq5lGw-154" target="6dyBDHQs_relzWyq5lGw-157">
          <mxGeometry width="50" height="50" relative="1" as="geometry">
            <mxPoint x="-70" y="-710" as="sourcePoint" />
            <mxPoint x="-20" y="-760" as="targetPoint" />
          </mxGeometry>
        </mxCell>
        <mxCell id="6dyBDHQs_relzWyq5lGw-159" value="&lt;font style=&quot;font-size: 18px;&quot;&gt;输入正确&lt;/font&gt;" style="text;html=1;align=center;verticalAlign=middle;resizable=0;points=[];autosize=1;strokeColor=none;fillColor=none;" vertex="1" parent="1">
          <mxGeometry x="-90" y="-800" width="100" height="40" as="geometry" />
        </mxCell>
        <mxCell id="6dyBDHQs_relzWyq5lGw-167" value="&lt;font style=&quot;font-size: 18px;&quot;&gt;登录&lt;/font&gt;" style="rounded=0;whiteSpace=wrap;html=1;" vertex="1" parent="1">
          <mxGeometry x="-40" y="-400" width="120" height="60" as="geometry" />
        </mxCell>
        <mxCell id="6dyBDHQs_relzWyq5lGw-168" value="&lt;font style=&quot;font-size: 14px;&quot;&gt;数据库验证&lt;/font&gt;" style="rhombus;whiteSpace=wrap;html=1;" vertex="1" parent="1">
          <mxGeometry x="-40" y="-310" width="120" height="90" as="geometry" />
        </mxCell>
        <mxCell id="6dyBDHQs_relzWyq5lGw-169" value="" style="endArrow=classic;html=1;rounded=0;exitX=0.5;exitY=1;exitDx=0;exitDy=0;" edge="1" parent="1" target="6dyBDHQs_relzWyq5lGw-167">
          <mxGeometry width="50" height="50" relative="1" as="geometry">
            <mxPoint x="20" y="-440" as="sourcePoint" />
            <mxPoint x="80" y="-280" as="targetPoint" />
          </mxGeometry>
        </mxCell>
        <mxCell id="6dyBDHQs_relzWyq5lGw-170" value="" style="endArrow=classic;html=1;rounded=0;exitX=0.5;exitY=1;exitDx=0;exitDy=0;entryX=0.5;entryY=0;entryDx=0;entryDy=0;" edge="1" parent="1" source="6dyBDHQs_relzWyq5lGw-167" target="6dyBDHQs_relzWyq5lGw-168">
          <mxGeometry width="50" height="50" relative="1" as="geometry">
            <mxPoint x="30" y="-230" as="sourcePoint" />
            <mxPoint x="80" y="-280" as="targetPoint" />
          </mxGeometry>
        </mxCell>
        <mxCell id="6dyBDHQs_relzWyq5lGw-171" value="" style="edgeStyle=elbowEdgeStyle;elbow=horizontal;endArrow=classic;html=1;curved=0;rounded=0;endSize=8;startSize=8;exitX=1;exitY=0.5;exitDx=0;exitDy=0;entryX=1;entryY=0.5;entryDx=0;entryDy=0;" edge="1" parent="1" source="6dyBDHQs_relzWyq5lGw-168" target="6dyBDHQs_relzWyq5lGw-167">
          <mxGeometry width="50" height="50" relative="1" as="geometry">
            <mxPoint x="30" y="-230" as="sourcePoint" />
            <mxPoint x="200" y="-350" as="targetPoint" />
            <Array as="points">
              <mxPoint x="140" y="-340" />
            </Array>
          </mxGeometry>
        </mxCell>
        <mxCell id="6dyBDHQs_relzWyq5lGw-172" value="&lt;font style=&quot;font-size: 18px;&quot;&gt;否&lt;/font&gt;" style="text;html=1;align=center;verticalAlign=middle;resizable=0;points=[];autosize=1;strokeColor=none;fillColor=none;" vertex="1" parent="1">
          <mxGeometry x="140" y="-340" width="40" height="40" as="geometry" />
        </mxCell>
        <mxCell id="6dyBDHQs_relzWyq5lGw-173" value="&lt;span style=&quot;font-size: 18px;&quot;&gt;点击商品进入商品页面&lt;/span&gt;" style="rounded=0;whiteSpace=wrap;html=1;" vertex="1" parent="1">
          <mxGeometry x="-140" y="-170" width="320" height="60" as="geometry" />
        </mxCell>
        <mxCell id="6dyBDHQs_relzWyq5lGw-174" value="" style="endArrow=classic;html=1;rounded=0;exitX=0.5;exitY=1;exitDx=0;exitDy=0;entryX=0.5;entryY=0;entryDx=0;entryDy=0;" edge="1" parent="1" source="6dyBDHQs_relzWyq5lGw-168" target="6dyBDHQs_relzWyq5lGw-173">
          <mxGeometry width="50" height="50" relative="1" as="geometry">
            <mxPoint x="30" y="-230" as="sourcePoint" />
            <mxPoint x="80" y="-280" as="targetPoint" />
          </mxGeometry>
        </mxCell>
        <mxCell id="6dyBDHQs_relzWyq5lGw-175" value="&lt;font style=&quot;font-size: 18px;&quot;&gt;开始&lt;/font&gt;" style="strokeWidth=2;html=1;shape=mxgraph.flowchart.terminator;whiteSpace=wrap;" vertex="1" parent="1">
          <mxGeometry x="-30" y="-500" width="100" height="60" as="geometry" />
        </mxCell>
        <mxCell id="6dyBDHQs_relzWyq5lGw-176" value="&lt;font style=&quot;font-size: 18px;&quot;&gt;结束&lt;/font&gt;" style="strokeWidth=2;html=1;shape=mxgraph.flowchart.terminator;whiteSpace=wrap;" vertex="1" parent="1">
          <mxGeometry x="-30" y="30" width="100" height="60" as="geometry" />
        </mxCell>
        <mxCell id="6dyBDHQs_relzWyq5lGw-177" value="" style="endArrow=classic;html=1;rounded=0;exitX=0.5;exitY=1;exitDx=0;exitDy=0;entryX=0.5;entryY=0;entryDx=0;entryDy=0;" edge="1" parent="1" source="6dyBDHQs_relzWyq5lGw-173" target="6dyBDHQs_relzWyq5lGw-179">
          <mxGeometry width="50" height="50" relative="1" as="geometry">
            <mxPoint x="380.0000000000002" y="-80" as="sourcePoint" />
            <mxPoint x="380.0000000000002" y="10" as="targetPoint" />
          </mxGeometry>
        </mxCell>
        <mxCell id="6dyBDHQs_relzWyq5lGw-178" value="&lt;font style=&quot;font-size: 18px;&quot;&gt;是&lt;/font&gt;" style="text;html=1;align=center;verticalAlign=middle;resizable=0;points=[];autosize=1;strokeColor=none;fillColor=none;" vertex="1" parent="1">
          <mxGeometry x="20" y="-220" width="40" height="40" as="geometry" />
        </mxCell>
        <mxCell id="6dyBDHQs_relzWyq5lGw-179" value="&lt;font style=&quot;font-size: 14px;&quot;&gt;浏览商品信息、查看商品状态、管理商品信息&lt;/font&gt;" style="rounded=0;whiteSpace=wrap;html=1;" vertex="1" parent="1">
          <mxGeometry x="-140" y="-70" width="320" height="60" as="geometry" />
        </mxCell>
        <mxCell id="6dyBDHQs_relzWyq5lGw-180" value="" style="endArrow=classic;html=1;rounded=0;exitX=0.5;exitY=1;exitDx=0;exitDy=0;" edge="1" parent="1" source="6dyBDHQs_relzWyq5lGw-179" target="6dyBDHQs_relzWyq5lGw-176">
          <mxGeometry width="50" height="50" relative="1" as="geometry">
            <mxPoint x="90.00000000000023" y="15" as="sourcePoint" />
            <mxPoint x="90.00000000000023" y="105" as="targetPoint" />
          </mxGeometry>
        </mxCell>
        <mxCell id="6dyBDHQs_relzWyq5lGw-190" value="" style="edgeStyle=orthogonalEdgeStyle;rounded=0;orthogonalLoop=1;jettySize=auto;html=1;" edge="1" parent="1" source="6dyBDHQs_relzWyq5lGw-181">
          <mxGeometry relative="1" as="geometry">
            <mxPoint x="1462.0285714285715" y="-340" as="targetPoint" />
            <Array as="points">
              <mxPoint x="1462.5" y="-380" />
              <mxPoint x="1462.5" y="-380" />
            </Array>
          </mxGeometry>
        </mxCell>
        <mxCell id="6dyBDHQs_relzWyq5lGw-181" value="&lt;span style=&quot;font-size: 18px;&quot;&gt;商家管理功能&lt;/span&gt;" style="rounded=0;whiteSpace=wrap;html=1;" vertex="1" parent="1">
          <mxGeometry x="1402" y="-470" width="120" height="60" as="geometry" />
        </mxCell>
        <mxCell id="6dyBDHQs_relzWyq5lGw-192" value="" style="edgeStyle=segmentEdgeStyle;endArrow=classic;html=1;curved=0;rounded=0;endSize=8;startSize=8;entryX=0.5;entryY=0;entryDx=0;entryDy=0;" edge="1" parent="1">
          <mxGeometry width="50" height="50" relative="1" as="geometry">
            <mxPoint x="1466.5" y="-380" as="sourcePoint" />
            <mxPoint x="1383.25" y="-340" as="targetPoint" />
          </mxGeometry>
        </mxCell>
        <mxCell id="6dyBDHQs_relzWyq5lGw-193" value="" style="edgeStyle=segmentEdgeStyle;endArrow=classic;html=1;curved=0;rounded=0;endSize=8;startSize=8;entryX=0.5;entryY=0;entryDx=0;entryDy=0;" edge="1" parent="1">
          <mxGeometry width="50" height="50" relative="1" as="geometry">
            <mxPoint x="1466.5" y="-380" as="sourcePoint" />
            <mxPoint x="1541.4999999999995" y="-340" as="targetPoint" />
          </mxGeometry>
        </mxCell>
        <mxCell id="6dyBDHQs_relzWyq5lGw-194" value="&lt;font style=&quot;font-size: 18px;&quot;&gt;登录&lt;/font&gt;" style="rounded=0;whiteSpace=wrap;html=1;" vertex="1" parent="1">
          <mxGeometry x="-1230" y="-770" width="120" height="60" as="geometry" />
        </mxCell>
        <mxCell id="6dyBDHQs_relzWyq5lGw-195" value="&lt;font style=&quot;font-size: 14px;&quot;&gt;数据库验证&lt;/font&gt;" style="rhombus;whiteSpace=wrap;html=1;" vertex="1" parent="1">
          <mxGeometry x="-1230" y="-680" width="120" height="90" as="geometry" />
        </mxCell>
        <mxCell id="6dyBDHQs_relzWyq5lGw-196" value="" style="endArrow=classic;html=1;rounded=0;exitX=0.5;exitY=1;exitDx=0;exitDy=0;" edge="1" parent="1" target="6dyBDHQs_relzWyq5lGw-194">
          <mxGeometry width="50" height="50" relative="1" as="geometry">
            <mxPoint x="-1170" y="-810" as="sourcePoint" />
            <mxPoint x="-1110" y="-650" as="targetPoint" />
          </mxGeometry>
        </mxCell>
        <mxCell id="6dyBDHQs_relzWyq5lGw-197" value="" style="endArrow=classic;html=1;rounded=0;exitX=0.5;exitY=1;exitDx=0;exitDy=0;entryX=0.5;entryY=0;entryDx=0;entryDy=0;" edge="1" parent="1" source="6dyBDHQs_relzWyq5lGw-194" target="6dyBDHQs_relzWyq5lGw-195">
          <mxGeometry width="50" height="50" relative="1" as="geometry">
            <mxPoint x="-1160" y="-600" as="sourcePoint" />
            <mxPoint x="-1110" y="-650" as="targetPoint" />
          </mxGeometry>
        </mxCell>
        <mxCell id="6dyBDHQs_relzWyq5lGw-198" value="" style="edgeStyle=elbowEdgeStyle;elbow=horizontal;endArrow=classic;html=1;curved=0;rounded=0;endSize=8;startSize=8;exitX=1;exitY=0.5;exitDx=0;exitDy=0;entryX=1;entryY=0.5;entryDx=0;entryDy=0;" edge="1" parent="1" source="6dyBDHQs_relzWyq5lGw-195" target="6dyBDHQs_relzWyq5lGw-194">
          <mxGeometry width="50" height="50" relative="1" as="geometry">
            <mxPoint x="-1160" y="-600" as="sourcePoint" />
            <mxPoint x="-990" y="-720" as="targetPoint" />
            <Array as="points">
              <mxPoint x="-1050" y="-710" />
            </Array>
          </mxGeometry>
        </mxCell>
        <mxCell id="6dyBDHQs_relzWyq5lGw-199" value="&lt;font style=&quot;font-size: 18px;&quot;&gt;否&lt;/font&gt;" style="text;html=1;align=center;verticalAlign=middle;resizable=0;points=[];autosize=1;strokeColor=none;fillColor=none;" vertex="1" parent="1">
          <mxGeometry x="-1050" y="-710" width="40" height="40" as="geometry" />
        </mxCell>
        <mxCell id="6dyBDHQs_relzWyq5lGw-200" value="&lt;span style=&quot;font-size: 18px;&quot;&gt;进入到个人中心页面&lt;/span&gt;" style="rounded=0;whiteSpace=wrap;html=1;" vertex="1" parent="1">
          <mxGeometry x="-1330" y="-540" width="320" height="60" as="geometry" />
        </mxCell>
        <mxCell id="6dyBDHQs_relzWyq5lGw-201" value="" style="endArrow=classic;html=1;rounded=0;exitX=0.5;exitY=1;exitDx=0;exitDy=0;entryX=0.5;entryY=0;entryDx=0;entryDy=0;" edge="1" parent="1" source="6dyBDHQs_relzWyq5lGw-195" target="6dyBDHQs_relzWyq5lGw-200">
          <mxGeometry width="50" height="50" relative="1" as="geometry">
            <mxPoint x="-1160" y="-600" as="sourcePoint" />
            <mxPoint x="-1110" y="-650" as="targetPoint" />
          </mxGeometry>
        </mxCell>
        <mxCell id="6dyBDHQs_relzWyq5lGw-202" value="&lt;font style=&quot;font-size: 18px;&quot;&gt;开始&lt;/font&gt;" style="strokeWidth=2;html=1;shape=mxgraph.flowchart.terminator;whiteSpace=wrap;" vertex="1" parent="1">
          <mxGeometry x="-1220" y="-870" width="100" height="60" as="geometry" />
        </mxCell>
        <mxCell id="6dyBDHQs_relzWyq5lGw-203" value="&lt;font style=&quot;font-size: 18px;&quot;&gt;结束&lt;/font&gt;" style="strokeWidth=2;html=1;shape=mxgraph.flowchart.terminator;whiteSpace=wrap;" vertex="1" parent="1">
          <mxGeometry x="-1220" y="-340" width="100" height="60" as="geometry" />
        </mxCell>
        <mxCell id="6dyBDHQs_relzWyq5lGw-204" value="" style="endArrow=classic;html=1;rounded=0;exitX=0.5;exitY=1;exitDx=0;exitDy=0;entryX=0.5;entryY=0;entryDx=0;entryDy=0;" edge="1" parent="1" source="6dyBDHQs_relzWyq5lGw-200" target="6dyBDHQs_relzWyq5lGw-206">
          <mxGeometry width="50" height="50" relative="1" as="geometry">
            <mxPoint x="-809.9999999999998" y="-450" as="sourcePoint" />
            <mxPoint x="-809.9999999999998" y="-360" as="targetPoint" />
          </mxGeometry>
        </mxCell>
        <mxCell id="6dyBDHQs_relzWyq5lGw-205" value="&lt;font style=&quot;font-size: 18px;&quot;&gt;是&lt;/font&gt;" style="text;html=1;align=center;verticalAlign=middle;resizable=0;points=[];autosize=1;strokeColor=none;fillColor=none;" vertex="1" parent="1">
          <mxGeometry x="-1170" y="-590" width="40" height="40" as="geometry" />
        </mxCell>
        <mxCell id="6dyBDHQs_relzWyq5lGw-206" value="&lt;span style=&quot;font-size: 14px;&quot;&gt;查看用户信息、管理订单、收货地址&lt;/span&gt;" style="rounded=0;whiteSpace=wrap;html=1;" vertex="1" parent="1">
          <mxGeometry x="-1330" y="-440" width="320" height="60" as="geometry" />
        </mxCell>
        <mxCell id="6dyBDHQs_relzWyq5lGw-207" value="" style="endArrow=classic;html=1;rounded=0;exitX=0.5;exitY=1;exitDx=0;exitDy=0;" edge="1" parent="1" source="6dyBDHQs_relzWyq5lGw-206" target="6dyBDHQs_relzWyq5lGw-203">
          <mxGeometry width="50" height="50" relative="1" as="geometry">
            <mxPoint x="-1099.9999999999998" y="-355" as="sourcePoint" />
            <mxPoint x="-1099.9999999999998" y="-265" as="targetPoint" />
          </mxGeometry>
        </mxCell>
        <mxCell id="6dyBDHQs_relzWyq5lGw-209" value="&lt;span style=&quot;font-size: 18px;&quot;&gt;订单管理功能&lt;/span&gt;" style="rounded=0;whiteSpace=wrap;html=1;shadow=0;" vertex="1" parent="1">
          <mxGeometry x="-1055" y="320" width="120" height="60" as="geometry" />
        </mxCell>
        <mxCell id="6dyBDHQs_relzWyq5lGw-210" value="用户订单管理" style="rounded=0;whiteSpace=wrap;html=1;shadow=0;" vertex="1" parent="1">
          <mxGeometry x="-1150" y="450" width="66.5" height="120" as="geometry" />
        </mxCell>
        <mxCell id="6dyBDHQs_relzWyq5lGw-211" value="订单状态管理" style="rounded=0;whiteSpace=wrap;html=1;shadow=0;" vertex="1" parent="1">
          <mxGeometry x="-990" y="450" width="70" height="120" as="geometry" />
        </mxCell>
        <mxCell id="6dyBDHQs_relzWyq5lGw-212" value="商家订单管理" style="rounded=0;whiteSpace=wrap;html=1;shadow=0;" vertex="1" parent="1">
          <mxGeometry x="-1070" y="450" width="70" height="120" as="geometry" />
        </mxCell>
        <mxCell id="6dyBDHQs_relzWyq5lGw-215" value="订单处理与管理" style="rounded=0;whiteSpace=wrap;html=1;shadow=0;" vertex="1" parent="1">
          <mxGeometry x="-910" y="450" width="70" height="120" as="geometry" />
        </mxCell>
        <mxCell id="6dyBDHQs_relzWyq5lGw-216" value="" style="endArrow=none;html=1;rounded=0;entryX=0.5;entryY=1;entryDx=0;entryDy=0;shadow=0;" edge="1" parent="1" target="6dyBDHQs_relzWyq5lGw-209">
          <mxGeometry width="50" height="50" relative="1" as="geometry">
            <mxPoint x="-995" y="420" as="sourcePoint" />
            <mxPoint x="-885" y="430" as="targetPoint" />
          </mxGeometry>
        </mxCell>
        <mxCell id="6dyBDHQs_relzWyq5lGw-217" value="" style="edgeStyle=segmentEdgeStyle;endArrow=classic;html=1;curved=0;rounded=0;endSize=8;startSize=8;entryX=0.5;entryY=0;entryDx=0;entryDy=0;shadow=0;" edge="1" parent="1" target="6dyBDHQs_relzWyq5lGw-215">
          <mxGeometry width="50" height="50" relative="1" as="geometry">
            <mxPoint x="-995" y="420" as="sourcePoint" />
            <mxPoint x="-885" y="430" as="targetPoint" />
          </mxGeometry>
        </mxCell>
        <mxCell id="6dyBDHQs_relzWyq5lGw-218" value="" style="edgeStyle=segmentEdgeStyle;endArrow=classic;html=1;curved=0;rounded=0;endSize=8;startSize=8;entryX=0.5;entryY=0;entryDx=0;entryDy=0;shadow=0;" edge="1" parent="1" target="6dyBDHQs_relzWyq5lGw-211">
          <mxGeometry width="50" height="50" relative="1" as="geometry">
            <mxPoint x="-1000" y="420" as="sourcePoint" />
            <mxPoint x="-880" y="450" as="targetPoint" />
          </mxGeometry>
        </mxCell>
        <mxCell id="6dyBDHQs_relzWyq5lGw-219" value="" style="edgeStyle=segmentEdgeStyle;endArrow=classic;html=1;curved=0;rounded=0;endSize=8;startSize=8;entryX=0.5;entryY=0;entryDx=0;entryDy=0;shadow=0;" edge="1" parent="1" target="6dyBDHQs_relzWyq5lGw-212">
          <mxGeometry width="50" height="50" relative="1" as="geometry">
            <mxPoint x="-995" y="420" as="sourcePoint" />
            <mxPoint x="-885" y="430" as="targetPoint" />
          </mxGeometry>
        </mxCell>
        <mxCell id="6dyBDHQs_relzWyq5lGw-220" value="" style="edgeStyle=segmentEdgeStyle;endArrow=classic;html=1;curved=0;rounded=0;endSize=8;startSize=8;entryX=0.5;entryY=0;entryDx=0;entryDy=0;shadow=0;" edge="1" parent="1" target="6dyBDHQs_relzWyq5lGw-210">
          <mxGeometry width="50" height="50" relative="1" as="geometry">
            <mxPoint x="-1005" y="420" as="sourcePoint" />
            <mxPoint x="-1135" y="420" as="targetPoint" />
          </mxGeometry>
        </mxCell>
        <mxCell id="6dyBDHQs_relzWyq5lGw-221" value="&lt;font style=&quot;font-size: 18px;&quot;&gt;登录&lt;/font&gt;" style="rounded=0;whiteSpace=wrap;html=1;" vertex="1" parent="1">
          <mxGeometry x="-1540" y="1000" width="120" height="60" as="geometry" />
        </mxCell>
        <mxCell id="6dyBDHQs_relzWyq5lGw-222" value="&lt;font style=&quot;font-size: 14px;&quot;&gt;数据库验证&lt;/font&gt;" style="rhombus;whiteSpace=wrap;html=1;" vertex="1" parent="1">
          <mxGeometry x="-1540" y="1090" width="120" height="90" as="geometry" />
        </mxCell>
        <mxCell id="6dyBDHQs_relzWyq5lGw-223" value="" style="endArrow=classic;html=1;rounded=0;exitX=0.5;exitY=1;exitDx=0;exitDy=0;" edge="1" parent="1" target="6dyBDHQs_relzWyq5lGw-221">
          <mxGeometry width="50" height="50" relative="1" as="geometry">
            <mxPoint x="-1480" y="960" as="sourcePoint" />
            <mxPoint x="-1420" y="1120" as="targetPoint" />
          </mxGeometry>
        </mxCell>
        <mxCell id="6dyBDHQs_relzWyq5lGw-224" value="" style="endArrow=classic;html=1;rounded=0;exitX=0.5;exitY=1;exitDx=0;exitDy=0;entryX=0.5;entryY=0;entryDx=0;entryDy=0;" edge="1" parent="1" source="6dyBDHQs_relzWyq5lGw-221" target="6dyBDHQs_relzWyq5lGw-222">
          <mxGeometry width="50" height="50" relative="1" as="geometry">
            <mxPoint x="-1470" y="1170" as="sourcePoint" />
            <mxPoint x="-1420" y="1120" as="targetPoint" />
          </mxGeometry>
        </mxCell>
        <mxCell id="6dyBDHQs_relzWyq5lGw-225" value="" style="edgeStyle=elbowEdgeStyle;elbow=horizontal;endArrow=classic;html=1;curved=0;rounded=0;endSize=8;startSize=8;exitX=1;exitY=0.5;exitDx=0;exitDy=0;entryX=1;entryY=0.5;entryDx=0;entryDy=0;" edge="1" parent="1" source="6dyBDHQs_relzWyq5lGw-222" target="6dyBDHQs_relzWyq5lGw-221">
          <mxGeometry width="50" height="50" relative="1" as="geometry">
            <mxPoint x="-1470" y="1170" as="sourcePoint" />
            <mxPoint x="-1300" y="1050" as="targetPoint" />
            <Array as="points">
              <mxPoint x="-1360" y="1060" />
            </Array>
          </mxGeometry>
        </mxCell>
        <mxCell id="6dyBDHQs_relzWyq5lGw-226" value="&lt;font style=&quot;font-size: 18px;&quot;&gt;否&lt;/font&gt;" style="text;html=1;align=center;verticalAlign=middle;resizable=0;points=[];autosize=1;strokeColor=none;fillColor=none;" vertex="1" parent="1">
          <mxGeometry x="-1360" y="1060" width="40" height="40" as="geometry" />
        </mxCell>
        <mxCell id="6dyBDHQs_relzWyq5lGw-227" value="&lt;span style=&quot;font-size: 18px;&quot;&gt;管理员进入订单管理界面&lt;/span&gt;" style="rounded=0;whiteSpace=wrap;html=1;" vertex="1" parent="1">
          <mxGeometry x="-1640" y="1230" width="320" height="60" as="geometry" />
        </mxCell>
        <mxCell id="6dyBDHQs_relzWyq5lGw-228" value="" style="endArrow=classic;html=1;rounded=0;exitX=0.5;exitY=1;exitDx=0;exitDy=0;entryX=0.5;entryY=0;entryDx=0;entryDy=0;" edge="1" parent="1" source="6dyBDHQs_relzWyq5lGw-222" target="6dyBDHQs_relzWyq5lGw-227">
          <mxGeometry width="50" height="50" relative="1" as="geometry">
            <mxPoint x="-1470" y="1170" as="sourcePoint" />
            <mxPoint x="-1420" y="1120" as="targetPoint" />
          </mxGeometry>
        </mxCell>
        <mxCell id="6dyBDHQs_relzWyq5lGw-229" value="&lt;font style=&quot;font-size: 18px;&quot;&gt;开始&lt;/font&gt;" style="strokeWidth=2;html=1;shape=mxgraph.flowchart.terminator;whiteSpace=wrap;" vertex="1" parent="1">
          <mxGeometry x="-1530" y="900" width="100" height="60" as="geometry" />
        </mxCell>
        <mxCell id="6dyBDHQs_relzWyq5lGw-230" value="&lt;font style=&quot;font-size: 18px;&quot;&gt;结束&lt;/font&gt;" style="strokeWidth=2;html=1;shape=mxgraph.flowchart.terminator;whiteSpace=wrap;" vertex="1" parent="1">
          <mxGeometry x="-1530" y="1430" width="100" height="60" as="geometry" />
        </mxCell>
        <mxCell id="6dyBDHQs_relzWyq5lGw-231" value="" style="endArrow=classic;html=1;rounded=0;exitX=0.5;exitY=1;exitDx=0;exitDy=0;entryX=0.5;entryY=0;entryDx=0;entryDy=0;" edge="1" parent="1" source="6dyBDHQs_relzWyq5lGw-227" target="6dyBDHQs_relzWyq5lGw-233">
          <mxGeometry width="50" height="50" relative="1" as="geometry">
            <mxPoint x="-1119.9999999999998" y="1320" as="sourcePoint" />
            <mxPoint x="-1119.9999999999998" y="1410" as="targetPoint" />
          </mxGeometry>
        </mxCell>
        <mxCell id="6dyBDHQs_relzWyq5lGw-232" value="&lt;font style=&quot;font-size: 18px;&quot;&gt;是&lt;/font&gt;" style="text;html=1;align=center;verticalAlign=middle;resizable=0;points=[];autosize=1;strokeColor=none;fillColor=none;" vertex="1" parent="1">
          <mxGeometry x="-1480" y="1180" width="40" height="40" as="geometry" />
        </mxCell>
        <mxCell id="6dyBDHQs_relzWyq5lGw-233" value="&lt;span style=&quot;font-size: 14px;&quot;&gt;查看用户订单管理、商家订单管理，订单状态处理&lt;/span&gt;" style="rounded=0;whiteSpace=wrap;html=1;" vertex="1" parent="1">
          <mxGeometry x="-1640" y="1330" width="320" height="60" as="geometry" />
        </mxCell>
        <mxCell id="6dyBDHQs_relzWyq5lGw-234" value="" style="endArrow=classic;html=1;rounded=0;exitX=0.5;exitY=1;exitDx=0;exitDy=0;" edge="1" parent="1" source="6dyBDHQs_relzWyq5lGw-233" target="6dyBDHQs_relzWyq5lGw-230">
          <mxGeometry width="50" height="50" relative="1" as="geometry">
            <mxPoint x="-1409.9999999999998" y="1415" as="sourcePoint" />
            <mxPoint x="-1409.9999999999998" y="1505" as="targetPoint" />
          </mxGeometry>
        </mxCell>
        <mxCell id="6dyBDHQs_relzWyq5lGw-248" value="用户订单管理" style="rounded=0;whiteSpace=wrap;html=1;shadow=0;" vertex="1" parent="1">
          <mxGeometry x="1350" y="-340" width="66.5" height="120" as="geometry" />
        </mxCell>
        <mxCell id="6dyBDHQs_relzWyq5lGw-249" value="订单状态管理" style="rounded=0;whiteSpace=wrap;html=1;shadow=0;" vertex="1" parent="1">
          <mxGeometry x="1510" y="-340" width="70" height="120" as="geometry" />
        </mxCell>
        <mxCell id="6dyBDHQs_relzWyq5lGw-250" value="商家订单管理" style="rounded=0;whiteSpace=wrap;html=1;shadow=0;" vertex="1" parent="1">
          <mxGeometry x="1430" y="-340" width="70" height="120" as="geometry" />
        </mxCell>
      </root>
    </mxGraphModel>
  </diagram>
</mxfile>
